<svg xmlns="http://www.w3.org/2000/svg" version="1.1" xmlns:xlink="http://www.w3.org/1999/xlink" xmlns:svgjs="http://svgjs.dev/svgjs" width="1500" height="1500" viewBox="0 0 1500 1500"><rect width="1500" height="1500" fill="#ffffff"></rect><g transform="matrix(0.6666666666666666,0,0,0.6666666666666666,250.00000781249992,187.66666666666674)"><svg viewBox="0 0 320 360" data-background-color="#d70909" preserveAspectRatio="xMidYMid meet" height="1687" width="1500" xmlns="http://www.w3.org/2000/svg" xmlns:xlink="http://www.w3.org/1999/xlink"><g id="tight-bounds" transform="matrix(1,0,0,1,0.0000025000000505315256,0)"><svg viewBox="0 0 320 360" height="360" width="320"><g><svg></svg></g><g><svg viewBox="0 0 320 360" height="360" width="320"><g><path transform="translate(-19.44751,3.1739) scale(3.53591,3.53591)" d="M67.6 10.7c0.2 0 1.8 0.8 2.7 1.1-0.3 0.1-1-0.2-1.8-0.5 0.2 0 0.6 0.1 1 0.3-0.2-0.2-1.7-0.7-1.9-0.9M52.7 7.6c0.3-0.1 3.8 0.4 5.4 0.5 0.1-0.1-0.2-0.1-0.6-0.2 0.5-0.1 1.5 0.2 2.2 0.3-2.1 0.1-4.4-0.5-6.4-0.3-0.7 0-0.2-0.2-0.6-0.3M49.8 7.6c1.8 0 3.2 0 0.6 0.2-0.3-0.1-0.7-0.1-0.6-0.2M78.1 15.9c0.2 0 1 0.9 1.4 1.2-0.1 0.1-0.9-0.7-1.3-1 0.1 0.1 0 0-0.1-0.2M76.1 14.6c-0.8-0.7-1.1-0.7-1.2-1.1 0.7 0.4 1.2 0.8 1.2 1.1M63.2 8.3c0.1-0.1 0.3 0.1 0.8 0.2-0.6-0.1-0.5 0-0.3 0.2-0.7-0.1-0.9-0.2-0.7-0.4 0.4 0.2 0.5 0.1 0.2 0M34.8 9.5c0-0.1 0.4-0.3 0.7-0.4-0.3 0.2-0.2 0.3 0.3 0.1 0 0.1-0.6 0.3-1 0.5 0.2-0.1 0.4-0.4 0-0.2M65.2 7.3c-0.3 0.1-1.4-0.5-2.5-0.7-0.6-0.2 2.4 0.5 2.5 0.7M6.2 56.7c0.6 2.5 0.2 2.4 0 0M6.3 41.7c0.1-0.4 0.2-1.5 0.3-1.4-0.3 2.4-0.8 3.5-0.9 5.3 0.3-1.6-0.1 0.9-0.2 1.5 0.1 0.8 0.1-0.5 0.3-0.3 0.2 0.3-0.4 4.5-0.2 2.2-0.2 2.1 0 4.4 0.4 5-0.5 3.2 2 10.4 2.5 11.9 0.1 0.1 0-0.5 0.2-0.1 0.2 1.3 1.1 2.2 1.4 3.6 0.3 0.4 1.5 2.6 1.7 3.1 0.4 0.8 0.6 0.7 1 1.5 1.2 2.3 3.1 4.5 4.9 6.6 5.8 6.8 14.7 12.4 24.6 14.4 9.9 2.1 20.3 0.6 28.4-3.3 0.5-0.3 0.4-0.4 1-0.6 2.8-0.9 6.2-3.8 8.1-4.9 0.9-1 3.3-2.7 3.6-3.7 1.7-1.4 3.4-3.7 4.3-5.2 0.5-0.8 0.9-0.8 1.1-1.3-0.1 0 1.6-2.1 2.1-3.3-0.2 0-0.5 0.6-0.5 0 3.6-6.9 5.6-16.2 4.5-22.6 0.2 7.9-1.8 16.7-5.6 22.3-1.7 3.6-5.2 7.5-8.4 10.3-0.5 0.5-1 1.1-1.6 1.5-1.9 1.6-4 2.9-6.2 4.1-5.2 2.9-11 5.4-17.8 5.5 11.7-1 22.2-6.9 28-14.1-4.4 4.3-6.3 6-11.2 8.5-0.4 0.7-3.7 2.1-5.9 2.7 1.3-0.6 4-1.6 4.9-2.4-7.3 3.5-15.4 5.5-23 4.4 2.9 0 7 0.1 10.9-0.6 0.6-0.2 0.9-0.4 1.6-0.5 7.6-1.7 14.9-5.4 20.1-10.6-3 2.7-7.5 5.9-10.4 6.9 2.7-1.5 7.6-4.4 9.2-6.6-3.2 3.2-9.2 6.4-13 7.8-0.6 0.1 0.4-0.4-0.6 0-1.2 0.3-0.7 0.3-1 0.5-4.6 1.3-9.9 2.4-14.3 2-0.8-0.1-1.1-0.3-1.8-0.3-0.8-0.1-1.5-0.1-2.4-0.1-3.5-0.4-7.3-1.8-10.1-3-1.5-0.7-3-1.2-4.5-2.1-1.2-0.7-2.2-1.5-3.2-2.3-3.8-2.8-7-5.6-10-9.6-5.4-7.5-8.2-16.9-7.8-26.2 0.4-9.3 4.1-18.4 10-25.1-0.3 0.3 0.4-0.7 1-1.3 0 0.2-0.1 0.5 0.6-0.2 0.6-0.7-0.2-0.2 0.1-0.6 6.2-6.8 17-12.3 28.1-12.5 0.4-0.3 1.1-0.7 1.9-0.5 0 0.1-0.5 0.1-0.5 0.1 1.1-0.1 2.1-0.1 2.6 0.1 0.1-0.1-0.4-0.2 0-0.2 0.7 0.2 0.9 0 1.3 0.2-0.3 0-0.6 0-0.8 0.1 2.5 0 4.1 0.6 6.6 0.8-1.3-0.3-1.6-0.3-2.6-0.6 1.1 0.2 1.6 0.4 2.1 0.3-0.2 0-0.1-0.3 0.1-0.2 2 0.5 2.2 0.7 4.3 1.4 0.2-0.2-0.9-0.3-1.2-0.6 2 0.7 3.8 1.2 5 2-0.4-0.3-1.6-0.7-2.5-1.1-0.1 0.1 0.3 0.2 0.4 0.4-1-0.5-2.4-1-3.8-1.2 1.2 0.3 2 0.7 2.5 0.9-1.1-0.2-2.5-0.9-4.1-1.2 2.6 0.8 7.5 2.6 10.5 4.2-1.1-0.7-2.4-1.2-3.1-1.6 0.6 0.1 1.3 0.5 1.3 0.3 0.7 0.3 1.6 1 2.1 1.1-0.9-0.6-2.7-1.5-3.3-1.8 7.5 3.4 14.2 9.1 18.5 16.4 0.4 0.7 1 2.3 1.5 2.5-0.1-0.5-0.5-0.8-0.9-1.6 0.2 0 0.2-0.3 0-0.6-0.4-0.5 0 0.4-0.4-0.1-1.8-3.3-4-6.2-7.4-9.4 1.9 1.8 0.5 0.5 0.1-0.1 2.6 2.3 5.6 6.2 6.9 8.2-0.2-0.3-0.3-0.5-0.2-0.5 2.4 4.1 3.9 7.8 5.4 13.1 0.1 0.1 0-0.4 0.2-0.1 1 4.2 1.3 7.7 1.2 10.9 0.8-5.4-1-13.8-4.2-20.4-0.4-0.8-0.4-0.2-0.8-1.1 0-0.3-0.3-0.9-0.5-1.3-4-6.6-8.9-11.3-14.7-15 0.4 0.2 1.2 0.8 1.2 0.7-10.8-7.1-23.3-8.1-33.6-5.9-0.7 0.3-1 0.6-1.8 1 1.5-0.5 2.4-0.6 3.8-0.9 0.3-0.3-1.3 0.1-0.6-0.2 0.1 0.1 1.4-0.2 1.7-0.1 0 0.1-0.4 0.2-0.5 0.3 3.3-0.7 6.7-0.8 9.6-0.6-1.7 0.1-4.8-0.2-5.8 0.3 1-0.1 2.4-0.2 3.3-0.1-1.2 0-3.4 0.1-4.4 0.2-0.1-0.1 1.6-0.3 0.5-0.3-0.5 0.1-1.3 0.1-1.6 0.4-8.6 0.8-17 5.3-22.9 10.6-1.2 1-2.6 2.1-3.5 3.2-2.2 2.5-3.6 5-5.2 7.2 1-2.1 3.2-5.3 5.8-8 2.6-2.7 5.4-5 6.9-6.2 0 0.4 2.4-1.5 3.3-2.1-0.6 0.5 0.4-0.2 0.6-0.1 3.2-1.9 5.8-2.6 8.7-3.7-0.7 0.2-1.3 0.4-1.4 0.3 0.7-0.2 1.1-0.4 1-0.5-2.8 0.8-7.2 2.7-10.7 4.8 6.3-4.3 14.3-6.9 22.2-7 7.9-0.2 15.6 1.8 21.7 5 4.1 1.8 8 5.1 11.1 8.3 0.9 0.8 0.2-0.2 1.5 1.2-0.4-0.2-0.7-0.4-0.2 0.2 0.8 0.9-0.2-0.7 1.1 0.9-0.1 0-0.5-0.5-0.5-0.3 3.5 3.1 6.2 8.7 7.8 12.4-0.4-1.5-1.4-3.6-2.2-5.1 2.4 4.4 3.2 7 4.2 10.9 0.4 0.3-0.2-1.4 0.2-0.6 0.1 0.6 0.2 2.5 0.6 2.8-0.3-1.9-0.8-4.2-1.2-4.6 0.3 0.2-0.5-2.3-1-2.9-0.2-1.6-1.6-4.4-2.8-6.5-4.3-8.4-12-15.3-20.6-19.1 0-0.2-0.5-0.4-0.7-0.6-8.5-3.6-18.7-4.6-28.5-2.3-9.9 2.4-19.2 8.1-25.8 16.3 0.3-1 2.8-2.9 2.9-3.7-2.9 3.1-6 7.2-8.1 11.6-2.2 4.4-3.4 8.9-3.9 12.2" fill="#000000" fill-rule="nonzero" stroke="none" stroke-width="1" stroke-linecap="butt" stroke-linejoin="miter" stroke-miterlimit="10" stroke-dasharray="" stroke-dashoffset="0" font-family="none" font-weight="none" font-size="none" text-anchor="none" style="mix-blend-mode: normal" data-fill-palette-color="tertiary"></path></g><g transform="matrix(1,0,0,1,48,93.96206397778764)"><svg viewBox="0 0 224 172.07587204442473" height="172.07587204442473" width="224"><g><svg viewBox="0 0 224 172.07587204442473" height="172.07587204442473" width="224"><g transform="matrix(1,0,0,1,0,112.320804371841)"><svg viewBox="0 0 224 59.755067672583706" height="59.755067672583706" width="224"><g id="textblocktransform"><svg viewBox="0 0 224 59.755067672583706" height="59.755067672583706" width="224" id="textblock"><g><svg viewBox="0 0 224 33.6066154754873" height="33.6066154754873" width="224"><g transform="matrix(1,0,0,1,0,0)"><svg width="224" viewBox="1.55 -34.55 253.92 38.099999999999994" height="33.6066154754873" data-palette-color="#000000"><path d="M27.05-13.9L27.05-13.9Q24.05-13.9 22-15.28 19.95-16.65 19.95-18.75L19.95-18.75Q19.95-21.4 23.4-24.05L23.4-24.05Q24-24.5 24.3-24.5 24.6-24.5 24.6-24.3L24.6-24.3Q24.6-23.8 23.8-23.5L23.8-23.5Q21-21.25 21-18.95L21-18.95Q21-17.3 22.5-16.18 24-15.05 26.25-15.05L26.25-15.05Q31.15-15.05 35.5-19.75L35.5-19.75Q37.75-22.2 37.75-25.4 37.75-28.6 35.35-30.15L35.35-30.15Q33.35-31.55 29.95-31.55L29.95-31.55Q25.05-31.55 20.1-29.1L20.1-29.1Q14-26.15 9.08-19.93 4.15-13.7 4.15-7.95L4.15-7.95Q4.15-3.4 7.25-0.93 10.35 1.55 14.95 1.55L14.95 1.55Q20.2 1.55 25.25-1L25.25-1Q29.1-3 31.9-6.1L31.9-6.1Q32.7-7 33.15-7L33.15-7Q33.45-7 33.45-6.48 33.45-5.95 32.9-5.4L32.9-5.4Q30.25-2.6 25.25 0L25.25 0Q19.1 3.25 12.88 3.25 6.65 3.25 3.6-0.85L3.6-0.85Q1.55-3.55 1.55-7.3L1.55-7.3Q1.55-8.95 1.95-10.85L1.95-10.85Q3.3-17.25 9.05-23.3L9.05-23.3Q13.2-27.65 18.9-30.08 24.6-32.5 29.7-32.5L29.7-32.5Q32.4-32.5 34.4-31.85L34.4-31.85Q39.85-30.15 39.85-25L39.85-25Q39.85-21.85 38-19.55L38-19.55Q33.4-13.9 27.05-13.9ZM49.35-10.6L49.35-10.6Q49.35-8.85 46-4.75L46-4.75Q42.05 0.1 39.25 0.1L39.25 0.1 38.45 0.1Q37.15 0.1 36.4-1.25L36.4-1.25Q35.8-2.2 35.8-3.35L35.8-3.35Q35.8-6.35 40.17-11.78 44.55-17.2 47.25-17.2L47.25-17.2Q49.8-17.2 49.8-14.5L49.8-14.5Q49.8-13.8 49.55-12.7L49.55-12.7Q49.6-12.55 50.5-12.55 51.4-12.55 53.25-13.5L53.25-13.5Q53.2-12.65 49.3-11.05L49.3-11.05Q49.35-10.85 49.35-10.6ZM46.1-13.2L46.1-13.2Q44.4-13.2 41.27-9.2 38.15-5.2 38.15-3.3 38.15-1.4 39.35-1.4L39.35-1.4Q41.5-1.4 44.8-5.3 48.1-9.2 48.1-10.9L48.1-10.9Q47.3-11.35 46.1-13.2ZM60.55 0.25L60.55 0.25Q56.8 0.25 56.8-3.9L56.8-3.9Q56.8-6 57.9-8.5 59-11 60.3-12.7L60.3-12.7Q60.05-12.65 59.65-12.65L59.65-12.65Q58.45-12.65 57.65-14.35L57.65-14.35 53.95-9.55Q50.85-5.7 50.35-5.7L50.35-5.7Q50.1-5.7 50.1-5.9L50.1-5.9Q50.1-6.4 50.95-7.35L50.95-7.35Q55.3-12.4 57.1-15.9L57.1-15.9Q58.25-20.25 60-20.25L60-20.25Q61.15-20.25 61.15-19.25 61.15-18.25 59.9-16.7L59.9-16.7 58.7-15.1Q58.7-14.05 60.25-14.05L60.25-14.05Q61.15-14.05 62.25-14.7L62.25-14.7 63.55-15.5Q63.65-15.55 64.05-15.55 64.45-15.55 64.9-15.05 65.35-14.55 65.2-14.15L65.2-14.15 61.75-9.8Q58.55-5.7 58.55-3.33 58.55-0.95 60.75-0.95L60.75-0.95Q63.05-0.95 66.4-3.4L66.4-3.4Q68.4-4.85 70.05-6.65L70.05-6.65Q71.6-8.45 71.75-8.45L71.75-8.45Q72.1-8.45 72.1-8.08 72.1-7.7 71.65-7.2L71.65-7.2 70.05-5.4Q68.7-4 67.05-2.7L67.05-2.7Q63.1 0.25 60.55 0.25ZM80.29 0.6L80.29 0.6Q76.34 0.6 73.59-5.65L73.59-5.65Q72.89-4.6 70.44 0.25L70.44 0.25Q68.64-0.45 68.64-1.65L68.64-1.65Q68.64-3.8 75.09-13.45 81.54-23.1 83.94-24.8L83.94-24.8Q84.14-24.95 84.74-24.95L84.74-24.95Q86.29-24.95 86.29-24.15L86.29-24.15Q86.29-23.75 82.82-19.65 79.34-15.55 78.94-14.7L78.94-14.7Q83.49-17.05 86.19-17.05L86.19-17.05Q87.74-17.05 88.84-15.8L88.84-15.8Q89.89-14.75 89.89-13.65L89.89-13.65Q89.89-13.5 89.89-13.35L89.89-13.35Q89.49-10.5 85.89-8.65L85.89-8.65Q82.99-7.1 80.49-7.1 77.99-7.1 76.99-7.75L76.99-7.75Q76.69-7.8 76.52-7.6 76.34-7.4 76.44-7.1L76.44-7.1Q77.84-0.9 81.09-0.9L81.09-0.9Q82.79-0.9 85.47-2.8 88.14-4.7 91.04-8.15L91.04-8.15Q91.39-8.5 91.67-8.5 91.94-8.5 91.94-8.22 91.94-7.95 91.59-7.45L91.59-7.45Q88.89-4.15 86.49-2.25L86.49-2.25Q82.84 0.6 80.29 0.6ZM87.49-14.7L87.49-14.7Q87.49-15.1 87.04-15.5 86.59-15.9 86.09-15.9L86.09-15.9Q83.39-15.9 79.62-13.65 75.84-11.4 74.99-8.55L74.99-8.55Q75.44-8.55 77.39-8.4L77.39-8.4Q79.64-8.4 83.29-10.25L83.29-10.25Q87.49-12.35 87.49-14.7ZM116.24-14.95L116.24-14.95 116.94-15.1Q117.49-15.1 117.99-14.65 118.49-14.2 118.49-13.95 118.49-13.7 115.39-9.13 112.29-4.55 112.29-2.75L112.29-2.75Q112.29-2.6 112.34-2.45L112.34-2.45Q112.59-1.3 113.44-1.3L113.44-1.3Q116.04-1.3 122.94-9.9L122.94-9.9Q123.09-10.1 123.29-10.1 123.49-10.1 123.49-9.73 123.49-9.35 123.04-8.75L123.04-8.75Q116.64-0.2 113.29-0.2L113.29-0.2Q112.84-0.2 112.44-0.35L112.44-0.35Q110.24-1.2 110.24-3.65L110.24-3.65Q110.24-4.5 110.44-5.35L110.44-5.35 107.34-2.35Q104.39 0.25 103.06 0.25 101.74 0.25 100.54-0.6L100.54-0.6Q99.19-1.6 99.19-3.25L99.19-3.25Q99.19-6.9 104.29-11.98 109.39-17.05 113.64-17.05L113.64-17.05Q115.29-17.05 115.84-15.9L115.84-15.9Q115.99-15.5 116.09-15.23 116.19-14.95 116.24-14.95ZM101.29-2.65L101.29-2.65Q101.29-0.85 102.54-0.85L102.54-0.85Q105.44-0.85 110.44-7.2L110.44-7.2 115.74-14.5Q115.34-15.2 114.44-15.2L114.44-15.2Q111.39-15.2 106.34-10.48 101.29-5.75 101.29-2.65ZM128.29-15.8L128.29-15.8Q129.64-15.8 129.64-14.75L129.64-14.75Q129.64-14.45 129.49-14.15L129.49-14.15Q124.99-7.9 124.09-4.7L124.09-4.7Q135.74-16.35 138.24-16.35L138.24-16.35Q138.49-16.4 138.69-16.4L138.69-16.4Q140.09-16.4 140.09-15.15L140.09-15.15Q140.09-14.9 139.99-14.65 139.89-14.4 137.99-11.95L137.99-11.95Q135.79-9.35 134.26-6.95 132.74-4.55 132.74-2.95 132.74-1.35 133.44-1.35L133.44-1.35Q135.64-1.35 141.09-7.4L141.09-7.4Q141.19-7.5 141.44-7.85L141.44-7.85Q142.19-8.75 142.34-8.75 142.49-8.75 142.49-8.25 142.49-7.75 141.79-6.95L141.79-6.95Q135.59 0.1 132.99 0.1L132.99 0.1Q130.54 0.1 130.54-2.6 130.54-5.3 132.54-8.8L132.54-8.8 135.74-14Q132.34-11.5 129.69-8.53 127.04-5.55 124.86-2.75 122.69 0.05 122.34 0.05L122.34 0.05Q121.59 0.05 121.16-0.58 120.74-1.2 120.74-2.13 120.74-3.05 121.39-4.6 122.04-6.15 123.04-8.35L123.04-8.35 120.04-5.2Q118.94-4.1 118.66-4.1 118.39-4.1 118.39-4.42 118.39-4.75 118.79-5.15L118.79-5.15Q120.64-7 121.99-8.7L121.99-8.7Q123.29-10.4 127.34-15.2L127.34-15.2Q127.79-15.8 128.29-15.8ZM156.78-15.15L156.78-15.15Q162.38-24.25 164.58-24.25L164.58-24.25Q164.93-24.25 165.56-24.03 166.18-23.8 166.18-23.35L166.18-23.35Q166.18-23.1 165.93-22.7L165.93-22.7Q161.93-17.8 159.98-15.35L159.98-15.35Q154.08-7.9 153.48-4.65L153.48-4.65Q153.33-3.95 153.33-3.25L153.33-3.25Q153.33-1 155.18-1L155.18-1Q158.88-1 164.83-7.85L164.83-7.85Q165.33-8.35 165.68-8.43 166.03-8.5 166.03-8.25 166.03-8 165.73-7.65L165.73-7.65Q159.93-0.7 155.43 0.1L155.43 0.1Q155.18 0.15 154.73 0.15L154.73 0.15Q153.18 0.15 152.41-0.93 151.63-2 151.63-3.25L151.63-3.25Q151.63-4.65 152.18-6.35L152.18-6.35 148.13-2.3Q145.38 0.25 143.81 0.25 142.23 0.25 141.18-0.6L141.18-0.6Q139.93-1.55 139.93-3.25L139.93-3.25Q139.93-6.9 145.03-11.98 150.13-17.05 154.38-17.05L154.38-17.05Q155.78-17.05 156.33-16.3L156.33-16.3Q156.53-16.05 156.78-15.15ZM142.03-2.65L142.03-2.65Q142.03-0.85 143.28-0.85L143.28-0.85Q145.43-0.85 150.43-6.75L150.43-6.75Q151.33-7.8 156.43-14.6L156.43-14.6Q156.08-15.2 155.23-15.2L155.23-15.2Q152.13-15.2 147.08-10.48 142.03-5.75 142.03-2.65ZM188.13-14.3L188.13-14.3Q188.83-14.3 188.83-12.65L188.83-12.65Q188.83-10.15 186.35-7.98 183.88-5.8 180.68-5.8L180.68-5.8Q178.63-5.8 176.73-6.8L176.73-6.8Q172.68-9 172.68-14.45L172.68-14.45Q172.68-18.3 174.78-22L174.78-22Q177.68-27.05 183.1-30 188.53-32.95 193.68-32.95L193.68-32.95Q197.43-32.95 199.83-31.3L199.83-31.3Q202.53-29.45 202.53-25.8L202.53-25.8Q202.53-21.15 198.03-11.23 193.53-1.3 193.53 0L193.53 0Q193.53 0.4 193.78 0.25L193.78 0.25Q195.08-0.6 205.7-13.33 216.33-26.05 220.48-29.05L220.48-29.05Q224.18-31.8 226.65-33.18 229.13-34.55 231.73-34.55L231.73-34.55Q232.43-34.55 232.78-34.5L232.78-34.5Q234.13-34.4 234.13-33.1L234.13-33.1Q234.13-32.45 233.68-32.45L233.68-32.45Q233.63-32.45 232.98-32.68 232.33-32.9 231.88-32.9L231.88-32.9Q224.88-32.9 213.03-20.25L213.03-20.25Q208.58-15.5 202.2-7.45 195.83 0.6 194.68 1.25L194.68 1.25Q190.63 3.55 190.13 3.55L190.13 3.55Q189.98 3.55 189.98 3.05L189.98 3.05Q189.98 1.4 192.78-5.35L192.78-5.35Q193.93-7.95 196.13-13.15L196.13-13.15 198.43-19.9Q199.63-23.3 199.63-24.85L199.63-24.85Q199.63-28.3 197.63-30.1 195.63-31.9 191.88-31.9 188.13-31.9 183.83-29.25L183.83-29.25Q179.18-26.25 176.88-21.85 174.58-17.45 174.58-14.4 174.58-11.35 175.83-9.6L175.83-9.6Q177.88-6.75 181.28-6.75L181.28-6.75Q183.88-6.75 185.88-8.47 187.88-10.2 187.88-12.85L187.88-12.85Q187.88-13.4 187.75-13.85 187.63-14.3 188.13-14.3ZM218.98-20.4Q219.73-20.4 220.4-19.93 221.08-19.45 221.08-18.8 221.08-18.15 220.45-17.68 219.83-17.2 219.08-17.2 218.33-17.2 217.7-17.75 217.08-18.3 217.08-19L217.08-19Q217.08-20.4 218.98-20.4L218.98-20.4ZM209.93 0.55L209.93 0.55Q207.38 0.55 207.38-2.75L207.38-2.75Q207.38-5.45 210.33-10.23 213.28-15 215.08-15.05L215.08-15.05Q215.58-15.05 216.2-14.65 216.83-14.25 216.83-13.85L216.83-13.85Q216.58-13.5 216.23-13.08 215.88-12.65 215.48-12.15 215.08-11.65 214.38-10.73 213.68-9.8 213.03-8.95L213.03-8.95Q209.28-4.1 209.28-2.27 209.28-0.45 210.53-0.45L210.53-0.45Q211.58-0.45 213.38-1.6L213.38-1.6Q217.58-4.2 220.03-7.3L220.03-7.3Q220.93-8.45 221.25-8.45 221.58-8.45 221.58-8.05 221.58-7.65 220.43-6.45 219.28-5.25 218.6-4.55 217.93-3.85 217.68-3.63 217.43-3.4 216.75-2.78 216.08-2.15 215.73-1.9 215.38-1.65 214.73-1.15 214.08-0.65 213.58-0.43 213.08-0.2 212.43 0.1L212.43 0.1Q211.38 0.55 209.93 0.55ZM227.47-15.8L227.47-15.8Q228.82-15.8 228.82-14.75L228.82-14.75Q228.82-14.45 228.67-14.15L228.67-14.15Q224.17-7.9 223.27-4.7L223.27-4.7Q234.92-16.35 237.42-16.35L237.42-16.35Q237.67-16.4 237.87-16.4L237.87-16.4Q239.27-16.4 239.27-15.15L239.27-15.15Q239.27-14.9 239.17-14.65 239.07-14.4 237.17-11.95L237.17-11.95Q234.97-9.35 233.45-6.95 231.92-4.55 231.92-2.95 231.92-1.35 232.62-1.35L232.62-1.35Q234.82-1.35 240.27-7.4L240.27-7.4Q240.37-7.5 240.62-7.85L240.62-7.85Q241.37-8.75 241.52-8.75 241.67-8.75 241.67-8.25 241.67-7.75 240.97-6.95L240.97-6.95Q234.77 0.1 232.17 0.1L232.17 0.1Q229.72 0.1 229.72-2.6 229.72-5.3 231.72-8.8L231.72-8.8 234.92-14Q231.52-11.5 228.87-8.53 226.22-5.55 224.05-2.75 221.87 0.05 221.52 0.05L221.52 0.05Q220.77 0.05 220.35-0.58 219.92-1.2 219.92-2.13 219.92-3.05 220.57-4.6 221.22-6.15 222.22-8.35L222.22-8.35 219.22-5.2Q218.12-4.1 217.85-4.1 217.57-4.1 217.57-4.42 217.57-4.75 217.97-5.15L217.97-5.15Q219.82-7 221.17-8.7L221.17-8.7Q222.47-10.4 226.52-15.2L226.52-15.2Q226.97-15.8 227.47-15.8ZM242.12 0.65L242.12 0.65Q241.57 0.65 241.12 0.5L241.12 0.5Q237.92-0.4 237.92-3.1L237.92-3.1Q237.92-6.6 242.32-11.2 246.72-15.8 250.22-15.8L250.22-15.8Q251.37-15.8 252.1-15.18 252.82-14.55 252.82-13.65L252.82-13.65Q252.82-10.85 248.6-8.3 244.37-5.75 241.72-5.75L241.72-5.75Q241.32-5.75 241.02-5.85L241.02-5.85Q240.27-4.5 240.27-3L240.27-3Q240.27-0.4 242.75-0.4 245.22-0.4 249.17-3.75L249.17-3.75Q252.22-6.2 254.37-8.95L254.37-8.95Q254.82-9.55 255.15-9.55 255.47-9.55 255.47-9.25 255.47-8.95 255.07-8.4L255.07-8.4Q252.37-4.85 248.57-2.1 244.77 0.65 242.12 0.65ZM251.57-13.75L251.57-13.75Q251.57-14.35 250.3-14.35 249.02-14.35 246.67-12.4L246.67-12.4Q243.52-9.8 241.77-6.95L241.77-6.95Q242.07-6.85 242.42-6.85L242.42-6.85Q244.32-6.85 247.5-8.88 250.67-10.9 251.47-13.3L251.47-13.3Q251.57-13.55 251.57-13.75Z" opacity="1" transform="matrix(1,0,0,1,0,0)" fill="#000000" class="wordmark-text-0" data-fill-palette-color="primary" id="text-0"></path></svg></g></svg></g><g transform="matrix(1,0,0,1,42.784000000000006,41.540330830478446)"><svg viewBox="0 0 138.432 18.21473684210526" height="18.21473684210526" width="138.432"><g transform="matrix(1,0,0,1,0,0)"><svg width="138.432" viewBox="3.3 -35.75 376.05 49.75" height="18.21473684210526" data-palette-color="#000000"><path d="M7.6 4.35L7.6 4.35Q5.3 4.15 4.75 3.1 4.2 2.05 4.2 0.4L4.2 0.4Q4.2-1.4 4.95-4.03 5.7-6.65 6.83-9.75 7.95-12.85 9.1-15.95L9.1-15.95Q8.5-15.9 7.83-15.83 7.15-15.75 6.15-15.63 5.15-15.5 3.55-15.25L3.55-15.25Q3.65-16.55 4.53-17.28 5.4-18 6.85-18.35 8.3-18.7 10.1-18.75L10.1-18.75Q11.5-22.6 12.98-26.28 14.45-29.95 15.9-33L15.9-33Q15.4-33.05 14.93-33.08 14.45-33.1 13.95-33.1L13.95-33.1Q10.75-33.1 9-32.45 7.25-31.8 6.6-30.45 5.95-29.1 5.95-27L5.95-27Q5.95-25.9 6.1-24.98 6.25-24.05 6.6-23.05L6.6-23.05Q4.9-23.35 4.1-24.38 3.3-25.4 3.3-26.95L3.3-26.95Q3.3-29.55 5.15-31.53 7-33.5 10.13-34.63 13.25-35.75 17.05-35.75L17.05-35.75Q19.7-35.75 22.18-35.38 24.65-35 27-35L27-35Q28.05-35 28.93-35.13 29.8-35.25 30.7-35.5L30.7-35.5Q28.85-33.4 27.6-32.7 26.35-32 25.05-32L25.05-32Q23.9-32 22.08-32.33 20.25-32.65 17.95-32.85L17.95-32.85Q17.3-31.2 16.5-28.88 15.7-26.55 14.85-23.93 14-21.3 13.15-18.7L13.15-18.7Q15.65-18.55 17.88-18.25 20.1-17.95 21.9-17.9L21.9-17.9Q21.5-17.3 20.98-16.98 20.45-16.65 19.5-16.5 18.55-16.35 16.88-16.28 15.2-16.2 12.4-16.15L12.4-16.15Q12.1-15.1 11.65-13.65 11.2-12.2 10.85-10.9 10.5-9.6 10.3-9L10.3-9Q9.2-5.15 8.43-1.8 7.65 1.55 7.6 4.35ZM25.55 1.6L25.55 1.6Q23.4 1.6 22.5 0.28 21.6-1.05 21.6-2.95L21.6-2.95Q21.6-4.5 22.1-6.15 22.6-7.8 23.42-9.25 24.25-10.7 25.27-11.6 26.3-12.5 27.35-12.5L27.35-12.5Q27.6-12.5 27.87-12.43 28.15-12.35 28.4-12.25L28.4-12.25Q27.95-11.85 27.32-10.78 26.7-9.7 26.15-8.33 25.6-6.95 25.22-5.6 24.85-4.25 24.85-3.3L24.85-3.3Q24.85-1.8 25.35-1.13 25.85-0.45 26.65-0.45L26.65-0.45Q27.7-0.45 29.15-1.58 30.6-2.7 32-4.45L32-4.45Q30.6-5.6 29.82-7.48 29.05-9.35 29.05-11.3L29.05-11.3Q29.05-12.95 29.62-14.4 30.2-15.85 31.3-16.73 32.4-17.6 33.95-17.6L33.95-17.6Q36-17.6 36.7-16.5 37.4-15.4 37.4-13.75L37.4-13.75Q37.4-11.8 36.45-9.43 35.5-7.05 34.05-4.85L34.05-4.85Q34.95-4.35 35.95-4.35L35.95-4.35Q36.75-4.35 37.75-4.67 38.75-5 39.72-5.8 40.7-6.6 41.3-7.95L41.3-7.95 41.9-7.45Q40.9-5.1 39.07-4.13 37.25-3.15 35.6-3.15L35.6-3.15Q34.95-3.15 34.35-3.28 33.75-3.4 33.2-3.65L33.2-3.65Q31.5-1.4 29.47 0.1 27.45 1.6 25.55 1.6ZM32.9-5.75L32.9-5.75Q34.15-7.6 34.97-9.63 35.8-11.65 35.8-13.45L35.8-13.45Q35.8-14.9 35.37-15.58 34.95-16.25 34.3-16.25L34.3-16.25Q33.3-16.25 32.25-14.8 31.2-13.35 31.2-11.15L31.2-11.15Q31.2-9.7 31.62-8.22 32.05-6.75 32.9-5.75ZM48.99 1.3L48.99 1.3Q47.3 1.3 46.32 0.4 45.34-0.5 45.34-1.95L45.34-1.95Q45.34-3.45 46.05-5.1 46.74-6.75 47.42-8.38 48.09-10 48.09-11.3L48.09-11.3Q48.09-12.9 47.17-13.68 46.24-14.45 45.3-15.1L45.3-15.1Q44.14-12.15 42.89-9.5 41.64-6.85 40.84-5.5L40.84-5.5 40.39-6.35Q41.09-7.65 42.22-10.15 43.34-12.65 44.45-15.85L44.45-15.85Q43.95-16.35 43.95-17.05L43.95-17.05Q43.95-18.55 44.8-19.5 45.64-20.45 46.05-20.45L46.05-20.45Q46.59-20.45 46.67-19.98 46.74-19.5 46.74-19.25L46.74-19.25Q46.74-19 46.47-18.28 46.2-17.55 46.2-17.4L46.2-17.4Q46.2-16.7 46.97-16.13 47.74-15.55 48.74-14.83 49.74-14.1 50.52-13.08 51.3-12.05 51.3-10.45L51.3-10.45Q51.3-8.95 50.67-7.4 50.05-5.85 49.42-4.45 48.8-3.05 48.8-2L48.8-2Q48.8-1.1 49.24-0.8 49.7-0.5 50.3-0.5L50.3-0.5Q51.49-0.5 52.77-1.25 54.05-2 55.24-3.15 56.45-4.3 57.39-5.58 58.34-6.85 58.8-7.95L58.8-7.95 59.45-7.45Q58.5-5.35 56.84-3.33 55.2-1.3 53.17 0 51.14 1.3 48.99 1.3ZM73.14 2.35L73.14 2.35Q71.59 2.35 70.52 1.33 69.44 0.3 69.44-1.8L69.44-1.8Q69.44-3.6 70.24-5.68 71.04-7.75 72.44-9.78 73.84-11.8 75.62-13.48 77.39-15.15 79.37-16.15 81.34-17.15 83.29-17.15L83.29-17.15Q85.24-17.15 86.54-16.13 87.84-15.1 87.84-13.4L87.84-13.4Q87.84-12.15 87.17-11.7 86.49-11.25 85.39-11.25L85.39-11.25Q85.49-11.65 85.57-12.13 85.64-12.6 85.64-13L85.64-13Q85.64-14.15 85.09-14.98 84.54-15.8 83.19-15.8L83.19-15.8Q81.79-15.8 80.34-14.83 78.89-13.85 77.54-12.23 76.19-10.6 75.14-8.7 74.09-6.8 73.49-4.95 72.89-3.1 72.89-1.65L72.89-1.65Q72.89 0.3 74.24 0.3L74.24 0.3Q75.39 0.3 76.74-0.78 78.09-1.85 79.52-3.53 80.94-5.2 82.24-7 83.54-8.8 84.54-10.3L84.54-10.3Q84.74-10.6 84.79-10.6L84.79-10.6Q85.09-10.55 85.57-10.4 86.04-10.25 86.39-10 86.74-9.75 86.74-9.35L86.74-9.35Q86.74-8.9 86.29-8.13 85.84-7.35 85.29-6.35 84.74-5.35 84.29-4.33 83.84-3.3 83.84-2.4L83.84-2.4Q83.84-1.65 84.24-0.93 84.64-0.2 85.54-0.2L85.54-0.2Q86.89-0.2 89.09-2.18 91.29-4.15 93.54-8.1L93.54-8.1 94.04-7.6Q92.99-4.9 91.34-2.85 89.69-0.8 87.82 0.35 85.94 1.5 84.14 1.5L84.14 1.5Q82.29 1.5 81.42 0.4 80.54-0.7 80.54-2L80.54-2Q80.54-2.3 80.59-2.68 80.64-3.05 80.69-3.45L80.69-3.45Q78.54-0.55 76.77 0.9 74.99 2.35 73.14 2.35ZM108.69 1L108.69 1Q106.94 1 106.06 0.1 105.19-0.8 105.19-2.2L105.19-2.2Q105.19-3.25 105.56-4.4 105.94-5.55 106.29-6.78 106.64-8 106.64-9.15L106.64-9.15Q106.64-10.55 106.06-11.08 105.49-11.6 104.64-11.6L104.64-11.6Q103.09-11.6 101.49-10.33 99.89-9.05 98.39-7.08 96.89-5.1 95.59-3 94.29-0.9 93.29 0.75L93.29 0.75Q92.49 0.75 91.76 0.48 91.04 0.2 90.64-0.35L90.64-0.35Q90.64-0.6 91.16-1.9 91.69-3.2 92.39-5.1 93.09-7 93.64-9 94.19-11 94.19-12.65L94.19-12.65Q94.49-13 95.14-13.35 95.79-13.7 96.49-13.7L96.49-13.7Q97.84-13.7 97.84-12.4L97.84-12.4Q97.84-11.6 97.39-9.73 96.94-7.85 96.24-5.8L96.24-5.8Q97.59-7.85 99.26-9.88 100.94-11.9 102.84-13.25 104.74-14.6 106.64-14.6L106.64-14.6Q108.59-14.6 109.46-13.2 110.34-11.8 110.34-10.1L110.34-10.1Q110.34-8.55 109.84-7.23 109.34-5.9 108.81-4.67 108.29-3.45 108.29-2.2L108.29-2.2Q108.29-1.15 108.71-0.73 109.14-0.3 109.79-0.3L109.79-0.3Q111.04-0.3 112.29-1.48 113.54-2.65 114.71-4.45 115.89-6.25 116.79-8.1L116.79-8.1 117.34-7.45Q116.29-5 114.99-3.1 113.69-1.2 112.14-0.1 110.59 1 108.69 1ZM134.23 2.2L134.23 2.2Q131.18 2.2 129.66 0.53 128.13-1.15 128.13-3.6L128.13-3.6Q128.13-5.85 129.26-8.35 130.38-10.85 132.26-13.05 134.13-15.25 136.38-16.63 138.63-18 140.83-18L140.83-18Q141.98-18 142.96-17.4 143.93-16.8 143.93-14.95L143.93-14.95Q143.93-13.05 142.81-11.38 141.68-9.7 139.86-8.4 138.03-7.1 135.86-6.28 133.68-5.45 131.53-5.25L131.53-5.25Q131.43-4.75 131.38-4.3 131.33-3.85 131.33-3.45L131.33-3.45Q131.33-2.7 131.51-1.95 131.68-1.2 132.13-0.58 132.58 0.05 133.36 0.4 134.13 0.75 135.28 0.75L135.28 0.75Q137.43 0.75 139.53-0.48 141.63-1.7 143.43-3.7 145.23-5.7 146.48-8.1L146.48-8.1 147.08-7.65Q145.73-4.65 143.66-2.45 141.58-0.25 139.16 0.98 136.73 2.2 134.23 2.2ZM131.78-6.2L131.78-6.2Q133.13-6.65 134.83-7.53 136.53-8.4 138.11-9.6 139.68-10.8 140.71-12.25 141.73-13.7 141.73-15.3L141.73-15.3Q141.73-15.85 141.53-16.15 141.33-16.45 140.68-16.45L140.68-16.45Q139.48-16.45 138.13-15.53 136.78-14.6 135.53-13.1 134.28-11.6 133.28-9.8 132.28-8 131.78-6.2ZM147.68 2.95L147.68 2.95Q147.48 2.95 147.33 2.75 147.18 2.55 147.18 2.2L147.18 2.2Q147.18 1.6 148.23 0.08 149.28-1.45 150.96-3.55 152.63-5.65 154.58-7.8L154.58-7.8Q154.33-10.15 153.93-11.88 153.53-13.6 152.38-13.6L152.38-13.6Q151.18-13.6 150.23-12.58 149.28-11.55 148.38-9.93 147.48-8.3 146.43-6.45L146.43-6.45 145.98-7.25Q146.68-8.6 147.31-10.05 147.93-11.5 148.68-12.75 149.43-14 150.51-14.78 151.58-15.55 153.18-15.55L153.18-15.55Q155.13-15.55 156.06-14.18 156.98-12.8 157.33-10.8L157.33-10.8Q159.68-13.25 161.58-14.93 163.48-16.6 164.13-16.6L164.13-16.6Q164.38-16.6 164.88-16.45 165.38-16.3 165.38-16.05L165.38-16.05Q164.83-16.05 163.63-15.08 162.43-14.1 160.88-12.45 159.33-10.8 157.63-8.85L157.63-8.85Q157.78-7.35 157.88-5.85 157.98-4.35 158.21-3.15 158.43-1.95 158.93-1.23 159.43-0.5 160.33-0.5L160.33-0.5Q161.23-0.5 162.26-1.25 163.28-2 164.26-3.18 165.23-4.35 166.06-5.65 166.88-6.95 167.38-8.05L167.38-8.05 167.88-7.55Q167.18-5.4 165.76-3.38 164.33-1.35 162.58-0.03 160.83 1.3 159.08 1.3L159.08 1.3Q157.63 1.3 156.78 0.33 155.93-0.65 155.51-2.23 155.08-3.8 154.83-5.55L154.83-5.55Q152.73-3.05 150.96-0.8 149.18 1.45 148.28 2.6L148.28 2.6Q147.98 2.95 147.68 2.95ZM176.08 14L176.08 14Q175.38 14 174.85 13.25 174.33 12.5 174.33 10.35L174.33 10.35Q174.33 8.6 174.7 6 175.08 3.4 175.73 0.53 176.38-2.35 177.28-4.9L177.28-4.9Q175.28-2.05 173.25-0.28 171.23 1.5 169.38 1.5L169.38 1.5Q168.53 1.5 167.65 1.07 166.78 0.65 166.2-0.3 165.63-1.25 165.63-2.8L165.63-2.8Q165.63-4.55 166.43-6.58 167.23-8.6 168.63-10.6 170.03-12.6 171.83-14.23 173.63-15.85 175.63-16.85 177.63-17.85 179.63-17.85L179.63-17.85Q181.33-17.85 182.45-17.15 183.58-16.45 183.58-15.4L183.58-15.4Q183.58-14.95 183.35-14.48 183.13-14 182.68-13.75L182.68-13.75Q182.43-13.55 181.93-13.55L181.93-13.55Q181.93-14.65 181.28-15.48 180.63-16.3 179.08-16.3L179.08-16.3Q177.43-16.3 175.93-15.33 174.43-14.35 173.2-12.83 171.98-11.3 171.05-9.53 170.13-7.75 169.63-6.1 169.13-4.45 169.13-3.3L169.13-3.3Q169.13-2.2 169.6-1.55 170.08-0.9 170.88-0.9L170.88-0.9Q171.88-0.9 173.03-1.85 174.18-2.8 175.4-4.35 176.63-5.9 177.85-7.78 179.08-9.65 180.23-11.5L180.23-11.5Q180.58-12.05 180.9-12.35 181.23-12.65 181.58-12.85L181.58-12.85Q182.13-13.1 182.55-13.05 182.98-13 183.18-12.8L183.18-12.8Q183.43-12.55 183.43-12.15L183.43-12.15Q183.43-11.35 182.6-10 181.78-8.65 180.75-6.58 179.73-4.5 179.03-1.45L179.03-1.45Q181.18-1.65 183.33-3.03 185.48-4.4 187.38-8.05L187.38-8.05 187.98-7.5Q186.33-3.7 183.8-2.1 181.28-0.5 178.93-0.25L178.93-0.25Q179.33 1.05 179.55 2.45 179.78 3.85 179.78 5.4L179.78 5.4Q179.78 7.75 179.3 9.7 178.83 11.65 177.98 12.83 177.13 14 176.08 14ZM177.43 11.25L177.43 11.25Q177.83 11.25 178.1 10.3 178.38 9.35 178.53 7.88 178.68 6.4 178.68 4.95L178.68 4.95Q178.68 3.95 178.6 3.03 178.53 2.1 178.33 1.2L178.33 1.2Q177.68 3.85 177.35 6.18 177.03 8.5 177.03 9.85L177.03 9.85Q177.03 10.5 177.13 10.88 177.23 11.25 177.43 11.25ZM190.18 1.5L190.18 1.5Q188.48 1.5 187.45-0.03 186.43-1.55 186.43-3.55L186.43-3.55Q186.43-5 186.9-6.9 187.38-8.8 188.08-10.65 188.78-12.5 189.53-13.7 190.28-14.9 190.83-14.9L190.83-14.9Q191.08-14.9 191.68-14.63 192.28-14.35 192.68-13.9L192.68-13.9Q192.13-13.05 191.33-11.3 190.53-9.55 189.93-7.55 189.33-5.55 189.33-3.85L189.33-3.85Q189.33-3.45 189.43-2.63 189.53-1.8 189.93-1.15 190.33-0.5 191.13-0.5L191.13-0.5Q192.08-0.5 193.08-1.48 194.08-2.45 195.1-4 196.13-5.55 197.08-7.35 198.03-9.15 198.85-10.8 199.68-12.45 200.23-13.55L200.23-13.55Q200.53-13.5 201.1-13.35 201.68-13.2 202.15-12.95 202.63-12.7 202.63-12.25L202.63-12.25Q202.63-12.05 202.13-10.93 201.63-9.8 200.95-8.18 200.28-6.55 199.78-4.9 199.28-3.25 199.28-2L199.28-2Q199.28-1.1 199.65-0.55 200.03 0 200.93 0L200.93 0Q201.98 0 203.48-0.95 204.98-1.9 206.53-3.73 208.08-5.55 209.28-8.1L209.28-8.1 209.93-7.65Q208.88-4.95 207.18-2.88 205.48-0.8 203.58 0.35 201.68 1.5 199.88 1.5L199.88 1.5Q198.58 1.5 197.8 1 197.03 0.5 196.7-0.35 196.38-1.2 196.38-2.2L196.38-2.2Q196.38-2.8 196.48-3.43 196.58-4.05 196.73-4.7L196.73-4.7Q195.83-3.05 194.78-1.63 193.73-0.2 192.58 0.65 191.43 1.5 190.18 1.5ZM211.92 1.3L211.92 1.3Q209.97 1.3 209.02 0.08 208.07-1.15 208.07-2.9L208.07-2.9Q208.07-4.05 208.5-5.8 208.92-7.55 209.62-9.47 210.32-11.4 211.25-13.1 212.17-14.8 213.22-15.88 214.27-16.95 215.27-16.95L215.27-16.95Q215.72-16.95 216.05-16.68 216.37-16.4 216.37-15.85L216.37-15.85Q216.37-15.25 215.6-13.9 214.82-12.55 213.77-10.8 212.72-9.05 211.95-7.13 211.17-5.2 211.17-3.45L211.17-3.45Q211.17-1.65 211.77-1.05 212.37-0.45 213.62-0.45L213.62-0.45Q215.32-0.45 217.25-2.15 219.17-3.85 221.32-8.1L221.32-8.1 221.77-7.6Q220.32-3.3 217.6-1 214.87 1.3 211.92 1.3ZM217.92-21.6L217.92-21.6Q217.12-21.6 216.5-22 215.87-22.4 215.87-23.25L215.87-23.25Q215.87-24.3 217.1-25.08 218.32-25.85 219.52-25.85L219.52-25.85Q220.27-25.85 220.72-25.5 221.17-25.15 221.17-24.3L221.17-24.3Q221.17-23.35 220.15-22.48 219.12-21.6 217.92-21.6ZM225.62 2.55L225.62 2.55Q223.27 2.55 221.9 1.53 220.52 0.5 219.95-1 219.37-2.5 219.37-4L219.37-4Q219.37-5.5 219.77-6.3 220.17-7.1 220.75-7.5 221.32-7.9 221.85-8.1 222.37-8.3 222.57-8.5L222.57-8.5Q224.07-10.15 225.32-11.95 226.57-13.75 227.52-15.75L227.52-15.75 227.52-16.35Q227.52-18.2 228.15-18.98 228.77-19.75 229.47-19.75L229.47-19.75Q229.87-19.75 230.07-19.55 230.27-19.35 230.27-19.1L230.27-19.1Q230.27-18.85 230.12-18.3 229.97-17.75 229.97-16.9L229.97-16.9Q229.97-15.25 230.62-13.33 231.27-11.4 231.92-9.28 232.57-7.15 232.57-4.85L232.57-4.85Q232.57-4.2 232.5-3.58 232.42-2.95 232.27-2.4L232.27-2.4Q234.02-2.7 235.57-3.98 237.12-5.25 238.57-8.05L238.57-8.05 239.02-7.55Q238.07-4.8 236.17-3.38 234.27-1.95 232.02-1.6L232.02-1.6Q231.22 0.55 229.5 1.55 227.77 2.55 225.62 2.55ZM225.72 0.8L225.72 0.8Q226.32 0.8 227.32 0.4 228.32 0 228.87-1.65L228.87-1.65Q226.77-2.05 225.15-3.3 223.52-4.55 222.72-5.8L222.72-5.8Q221.62-5.75 221.62-4.05L221.62-4.05Q221.62-2.25 222.7-0.73 223.77 0.8 225.72 0.8ZM229.12-2.45L229.12-2.45Q229.22-2.95 229.27-3.5 229.32-4.05 229.32-4.8L229.32-4.8Q229.32-7.15 228.75-9.47 228.17-11.8 227.77-13.85L227.77-13.85Q226.62-11.95 225.35-10.23 224.07-8.5 222.92-7.35L222.92-7.35Q223.67-5.75 225.25-4.35 226.82-2.95 229.12-2.45ZM241.22 1.3L241.22 1.3Q239.27 1.3 238.32 0.08 237.37-1.15 237.37-2.9L237.37-2.9Q237.37-4.05 237.79-5.8 238.22-7.55 238.92-9.47 239.62-11.4 240.54-13.1 241.47-14.8 242.52-15.88 243.57-16.95 244.57-16.95L244.57-16.95Q245.02-16.95 245.34-16.68 245.67-16.4 245.67-15.85L245.67-15.85Q245.67-15.25 244.89-13.9 244.12-12.55 243.07-10.8 242.02-9.05 241.24-7.13 240.47-5.2 240.47-3.45L240.47-3.45Q240.47-1.65 241.07-1.05 241.67-0.45 242.92-0.45L242.92-0.45Q244.62-0.45 246.54-2.15 248.47-3.85 250.62-8.1L250.62-8.1 251.07-7.6Q249.62-3.3 246.89-1 244.17 1.3 241.22 1.3ZM247.22-21.6L247.22-21.6Q246.42-21.6 245.79-22 245.17-22.4 245.17-23.25L245.17-23.25Q245.17-24.3 246.39-25.08 247.62-25.85 248.82-25.85L248.82-25.85Q249.57-25.85 250.02-25.5 250.47-25.15 250.47-24.3L250.47-24.3Q250.47-23.35 249.44-22.48 248.42-21.6 247.22-21.6ZM253.92 2.3L253.92 2.3Q251.77 2.3 250.62 1.05 249.47-0.2 249.47-2.65L249.47-2.65Q249.47-4.85 250.29-8.08 251.12-11.3 252.37-14.7L252.37-14.7Q251.87-14.8 251.42-14.88 250.97-14.95 250.57-15.1L250.57-15.1 250.57-16Q250.97-15.95 251.52-15.9 252.07-15.85 252.77-15.8L252.77-15.8Q253.82-18.5 255.02-21.03 256.22-23.55 257.39-25.53 258.57-27.5 259.64-28.68 260.72-29.85 261.47-29.85L261.47-29.85Q261.87-29.85 262.19-29.58 262.52-29.3 262.52-28.75L262.52-28.75Q262.52-27.9 261.47-25.98 260.42-24.05 258.87-21.4 257.32-18.75 255.87-15.65L255.87-15.65Q256.32-15.65 256.79-15.65 257.27-15.65 257.72-15.65L257.72-15.65Q259.37-15.65 261.19-15.7 263.02-15.75 264.87-15.95L264.87-15.95 264.87-15.05Q262.12-14.75 259.94-14.6 257.77-14.45 256.07-14.45L256.07-14.45Q255.87-14.45 255.69-14.45 255.52-14.45 255.32-14.45L255.32-14.45Q254.17-11.8 253.37-9 252.57-6.2 252.57-3.55L252.57-3.55Q252.57-1.4 253.22-0.48 253.87 0.45 255.37 0.45L255.37 0.45Q257.97 0.45 260.47-1.85 262.97-4.15 264.87-8.1L264.87-8.1 265.52-7.6Q264.32-4.8 262.49-2.55 260.67-0.3 258.47 1 256.27 2.3 253.92 2.3ZM269.31 2.2L269.31 2.2Q266.26 2.2 264.74 0.53 263.21-1.15 263.21-3.6L263.21-3.6Q263.21-5.85 264.34-8.35 265.46-10.85 267.34-13.05 269.21-15.25 271.46-16.63 273.71-18 275.91-18L275.91-18Q277.06-18 278.04-17.4 279.01-16.8 279.01-14.95L279.01-14.95Q279.01-13.05 277.89-11.38 276.76-9.7 274.94-8.4 273.11-7.1 270.94-6.28 268.76-5.45 266.61-5.25L266.61-5.25Q266.51-4.75 266.46-4.3 266.41-3.85 266.41-3.45L266.41-3.45Q266.41-2.7 266.59-1.95 266.76-1.2 267.21-0.58 267.66 0.05 268.44 0.4 269.21 0.75 270.36 0.75L270.36 0.75Q272.51 0.75 274.61-0.48 276.71-1.7 278.51-3.7 280.31-5.7 281.56-8.1L281.56-8.1 282.16-7.65Q280.81-4.65 278.74-2.45 276.66-0.25 274.24 0.98 271.81 2.2 269.31 2.2ZM266.86-6.2L266.86-6.2Q268.21-6.65 269.91-7.53 271.61-8.4 273.19-9.6 274.76-10.8 275.79-12.25 276.81-13.7 276.81-15.3L276.81-15.3Q276.81-15.85 276.61-16.15 276.41-16.45 275.76-16.45L275.76-16.45Q274.56-16.45 273.21-15.53 271.86-14.6 270.61-13.1 269.36-11.6 268.36-9.8 267.36-8 266.86-6.2ZM297.81 2.3L297.81 2.3Q295.66 2.3 294.51 1.05 293.36-0.2 293.36-2.65L293.36-2.65Q293.36-4.85 294.18-8.08 295.01-11.3 296.26-14.7L296.26-14.7Q295.76-14.8 295.31-14.88 294.86-14.95 294.46-15.1L294.46-15.1 294.46-16Q294.86-15.95 295.41-15.9 295.96-15.85 296.66-15.8L296.66-15.8Q297.71-18.5 298.91-21.03 300.11-23.55 301.28-25.53 302.46-27.5 303.53-28.68 304.61-29.85 305.36-29.85L305.36-29.85Q305.76-29.85 306.08-29.58 306.41-29.3 306.41-28.75L306.41-28.75Q306.41-27.9 305.36-25.98 304.31-24.05 302.76-21.4 301.21-18.75 299.76-15.65L299.76-15.65Q300.21-15.65 300.68-15.65 301.16-15.65 301.61-15.65L301.61-15.65Q303.26-15.65 305.08-15.7 306.91-15.75 308.76-15.95L308.76-15.95 308.76-15.05Q306.01-14.75 303.83-14.6 301.66-14.45 299.96-14.45L299.96-14.45Q299.76-14.45 299.58-14.45 299.41-14.45 299.21-14.45L299.21-14.45Q298.06-11.8 297.26-9 296.46-6.2 296.46-3.55L296.46-3.55Q296.46-1.4 297.11-0.48 297.76 0.45 299.26 0.45L299.26 0.45Q301.86 0.45 304.36-1.85 306.86-4.15 308.76-8.1L308.76-8.1 309.41-7.6Q308.21-4.8 306.38-2.55 304.56-0.3 302.36 1 300.16 2.3 297.81 2.3ZM310.21 2.35L310.21 2.35Q308.66 2.35 307.58 1.33 306.51 0.3 306.51-1.8L306.51-1.8Q306.51-3.6 307.31-5.68 308.11-7.75 309.51-9.78 310.91-11.8 312.68-13.48 314.46-15.15 316.43-16.15 318.41-17.15 320.36-17.15L320.36-17.15Q322.31-17.15 323.61-16.13 324.91-15.1 324.91-13.4L324.91-13.4Q324.91-12.15 324.23-11.7 323.56-11.25 322.46-11.25L322.46-11.25Q322.56-11.65 322.63-12.13 322.71-12.6 322.71-13L322.71-13Q322.71-14.15 322.16-14.98 321.61-15.8 320.26-15.8L320.26-15.8Q318.86-15.8 317.41-14.83 315.96-13.85 314.61-12.23 313.26-10.6 312.21-8.7 311.16-6.8 310.56-4.95 309.96-3.1 309.96-1.65L309.96-1.65Q309.96 0.3 311.31 0.3L311.31 0.3Q312.46 0.3 313.81-0.78 315.16-1.85 316.58-3.53 318.01-5.2 319.31-7 320.61-8.8 321.61-10.3L321.61-10.3Q321.81-10.6 321.86-10.6L321.86-10.6Q322.16-10.55 322.63-10.4 323.11-10.25 323.46-10 323.81-9.75 323.81-9.35L323.81-9.35Q323.81-8.9 323.36-8.13 322.91-7.35 322.36-6.35 321.81-5.35 321.36-4.33 320.91-3.3 320.91-2.4L320.91-2.4Q320.91-1.65 321.31-0.93 321.71-0.2 322.61-0.2L322.61-0.2Q323.96-0.2 326.16-2.18 328.36-4.15 330.61-8.1L330.61-8.1 331.11-7.6Q330.06-4.9 328.41-2.85 326.76-0.8 324.88 0.35 323.01 1.5 321.21 1.5L321.21 1.5Q319.36 1.5 318.48 0.4 317.61-0.7 317.61-2L317.61-2Q317.61-2.3 317.66-2.68 317.71-3.05 317.76-3.45L317.76-3.45Q315.61-0.55 313.83 0.9 312.06 2.35 310.21 2.35ZM334.85 2.55L334.85 2.55Q332.5 2.55 331.13 1.53 329.75 0.5 329.18-1 328.6-2.5 328.6-4L328.6-4Q328.6-5.5 329-6.3 329.4-7.1 329.98-7.5 330.55-7.9 331.08-8.1 331.6-8.3 331.8-8.5L331.8-8.5Q333.3-10.15 334.55-11.95 335.8-13.75 336.75-15.75L336.75-15.75 336.75-16.35Q336.75-18.2 337.38-18.98 338-19.75 338.7-19.75L338.7-19.75Q339.1-19.75 339.3-19.55 339.5-19.35 339.5-19.1L339.5-19.1Q339.5-18.85 339.35-18.3 339.2-17.75 339.2-16.9L339.2-16.9Q339.2-15.25 339.85-13.33 340.5-11.4 341.15-9.28 341.8-7.15 341.8-4.85L341.8-4.85Q341.8-4.2 341.73-3.58 341.65-2.95 341.5-2.4L341.5-2.4Q343.25-2.7 344.8-3.98 346.35-5.25 347.8-8.05L347.8-8.05 348.25-7.55Q347.3-4.8 345.4-3.38 343.5-1.95 341.25-1.6L341.25-1.6Q340.45 0.55 338.73 1.55 337 2.55 334.85 2.55ZM334.95 0.8L334.95 0.8Q335.55 0.8 336.55 0.4 337.55 0 338.1-1.65L338.1-1.65Q336-2.05 334.38-3.3 332.75-4.55 331.95-5.8L331.95-5.8Q330.85-5.75 330.85-4.05L330.85-4.05Q330.85-2.25 331.93-0.73 333 0.8 334.95 0.8ZM338.35-2.45L338.35-2.45Q338.45-2.95 338.5-3.5 338.55-4.05 338.55-4.8L338.55-4.8Q338.55-7.15 337.98-9.47 337.4-11.8 337-13.85L337-13.85Q335.85-11.95 334.58-10.23 333.3-8.5 332.15-7.35L332.15-7.35Q332.9-5.75 334.48-4.35 336.05-2.95 338.35-2.45ZM351.1 2.3L351.1 2.3Q348.95 2.3 347.8 1.05 346.65-0.2 346.65-2.65L346.65-2.65Q346.65-4.85 347.48-8.08 348.3-11.3 349.55-14.7L349.55-14.7Q349.05-14.8 348.6-14.88 348.15-14.95 347.75-15.1L347.75-15.1 347.75-16Q348.15-15.95 348.7-15.9 349.25-15.85 349.95-15.8L349.95-15.8Q351-18.5 352.2-21.03 353.4-23.55 354.58-25.53 355.75-27.5 356.83-28.68 357.9-29.85 358.65-29.85L358.65-29.85Q359.05-29.85 359.38-29.58 359.7-29.3 359.7-28.75L359.7-28.75Q359.7-27.9 358.65-25.98 357.6-24.05 356.05-21.4 354.5-18.75 353.05-15.65L353.05-15.65Q353.5-15.65 353.98-15.65 354.45-15.65 354.9-15.65L354.9-15.65Q356.55-15.65 358.38-15.7 360.2-15.75 362.05-15.95L362.05-15.95 362.05-15.05Q359.3-14.75 357.13-14.6 354.95-14.45 353.25-14.45L353.25-14.45Q353.05-14.45 352.88-14.45 352.7-14.45 352.5-14.45L352.5-14.45Q351.35-11.8 350.55-9 349.75-6.2 349.75-3.55L349.75-3.55Q349.75-1.4 350.4-0.48 351.05 0.45 352.55 0.45L352.55 0.45Q355.15 0.45 357.65-1.85 360.15-4.15 362.05-8.1L362.05-8.1 362.7-7.6Q361.5-4.8 359.68-2.55 357.85-0.3 355.65 1 353.45 2.3 351.1 2.3ZM366.5 2.2L366.5 2.2Q363.45 2.2 361.92 0.53 360.4-1.15 360.4-3.6L360.4-3.6Q360.4-5.85 361.52-8.35 362.65-10.85 364.52-13.05 366.4-15.25 368.65-16.63 370.9-18 373.1-18L373.1-18Q374.25-18 375.22-17.4 376.2-16.8 376.2-14.95L376.2-14.95Q376.2-13.05 375.07-11.38 373.95-9.7 372.12-8.4 370.3-7.1 368.12-6.28 365.95-5.45 363.8-5.25L363.8-5.25Q363.7-4.75 363.65-4.3 363.6-3.85 363.6-3.45L363.6-3.45Q363.6-2.7 363.77-1.95 363.95-1.2 364.4-0.58 364.85 0.05 365.62 0.4 366.4 0.75 367.55 0.75L367.55 0.75Q369.7 0.75 371.8-0.48 373.9-1.7 375.7-3.7 377.5-5.7 378.75-8.1L378.75-8.1 379.35-7.65Q378-4.65 375.92-2.45 373.85-0.25 371.42 0.98 369 2.2 366.5 2.2ZM364.05-6.2L364.05-6.2Q365.4-6.65 367.1-7.53 368.8-8.4 370.37-9.6 371.95-10.8 372.97-12.25 374-13.7 374-15.3L374-15.3Q374-15.85 373.8-16.15 373.6-16.45 372.95-16.45L372.95-16.45Q371.75-16.45 370.4-15.53 369.05-14.6 367.8-13.1 366.55-11.6 365.55-9.8 364.55-8 364.05-6.2Z" opacity="1" transform="matrix(1,0,0,1,0,0)" fill="#000000" class="slogan-text-1" data-fill-palette-color="secondary" id="text-1"></path></svg></g></svg></g></svg></g></svg></g><g transform="matrix(1,0,0,1,63.77331316907064,0)"><svg viewBox="0 0 96.45337366185872 96.45337366185872" height="96.45337366185872" width="96.45337366185872"><g><svg></svg></g><g id="icon-0"><svg viewBox="0 0 96.45337366185872 96.45337366185872" height="96.45337366185872" width="96.45337366185872"><g><path d="M0 48.227c0-26.635 21.592-48.227 48.227-48.227 26.635 0 48.227 21.592 48.226 48.227 0 26.635-21.592 48.227-48.226 48.226-26.635 0-48.227-21.592-48.227-48.226zM48.227 93.423c24.961 0 45.196-20.235 45.196-45.196 0-24.961-20.235-45.196-45.196-45.196-24.961 0-45.196 20.235-45.196 45.196 0 24.961 20.235 45.196 45.196 45.196z" data-fill-palette-color="accent" fill="#000000" stroke="transparent"></path><ellipse rx="47.744419962620064" ry="47.744419962620064" cx="48.22668683092936" cy="48.22668683092936" fill="#000000" stroke="transparent" stroke-width="0" fill-opacity="1" data-fill-palette-color="accent"></ellipse></g><g transform="matrix(1,0,0,1,20.41649264033582,23.289231262714335)"><svg viewBox="0 0 55.62038838118708 49.87491113643005" height="49.87491113643005" width="55.62038838118708"><g><svg xmlns="http://www.w3.org/2000/svg" xmlns:xlink="http://www.w3.org/1999/xlink" version="1.1" x="0" y="0" viewBox="0.2529824815667968 5.014056078296867 89.4940175184332 80.24946069027624" height="49.87491113643005" width="55.62038838118708" class="icon-cg-0" data-fill-palette-color="quaternary" id="cg-0"><g fill="#c8c8c8" data-fill-palette-color="quaternary"><g fill="#c8c8c8" data-fill-palette-color="quaternary"><path d="M87.743 51.128C86.283 54.571 84.251 57.709 81.117 59.875 78.562 61.64 77.674 61.783 75.135 62.607 73.779 66.26 72.444 69.924 71.308 73.653 70.94 74.862 70.533 76.129 70.355 77.388L70.928 79.328C74.624 81.278 76.727 82.545 76.982 83.811 77.237 85.076 75.555 85.255 74.773 85.263 70.901 85.297 65.882 83.648 62.478 81.874 61.377 81.3 58.754 80.049 58.912 78.328 59.644 76.082 67.119 78.148 67.119 78.148L68.67 76.824C69.233 75.512 69.655 74.145 70.097 72.79 71.223 69.21 72.16 65.575 73.073 61.936 70.406 58.831 69 55.025 68.893 50.917 68.806 47.613 69.457 46.086 70.302 42.994 71.207 40.635 72.011 38.314 73.725 36.217 76.971 37.546 83.595 40.035 89.747 41.432 89.611 43.872 89.331 46.07 88.765 47.97L87.743 51.128M88.212 48.152C89.238 46.061 89.286 43.05 89.27 41.558 82.854 40.047 78.402 38.532 73.955 36.573 73.077 37.487 70.699 42.056 69.669 46.907 73.291 48.469 87.464 49.676 88.212 48.152M77.4 5.13C77.4 5.13 78 4.781 78.245 5.294 78.734 6.203 80.954 10.405 81.609 11.641 81.881 12.152 81.407 12.32 81.407 12.32 81.22 12.414 79.995 13.947 79.725 13.238 76.904 14.803 71.599 17.791 71.174 18.064 66.259 20.823 62.117 23.476 58.036 27.364 55.56 29.86 53.744 32.376 51.496 35.012 50.059 36.697 49.782 36.924 48.384 38.306 46.016 40.572 43.146 42.15 40.357 43.815 34.18 47.505 30.134 49.917 23.899 53.503 22.135 54.518 20.361 55.515 18.582 56.504 17.657 57.017 16.723 57.513 15.79 58.008 13.966 58.976 11.987 59.857 9.85 59.44 8.657 59.207 7.535 58.611 6.752 57.685 2.596 50.497 4.674 54.091 0.517 46.903-0.734 42.371 2.683 40.177 6.09 38.068 8.27 36.719 10.481 35.42 12.695 34.128 18.193 30.918 23.746 27.805 29.301 24.696 32.136 23.11 34.935 21.409 38.08 20.487 43.139 19.004 44.049 19.412 49.64 18.228 50.553 18.012 51.471 17.82 52.378 17.58 54.253 17.083 56.41 16.418 58.151 15.585 61.394 14.034 70.918 8.647 75.916 5.929 75.658 5.439 76.971 5.357 77.4 5.13M44.222 38.266C41.332 34.071 38.811 29.634 36.583 25.055 36.229 24.2 35.098 23.974 34.352 24.459L18.57 33.585C17.893 34.06 17.68 35.08 17.974 35.817 20.352 40.756 22.851 45.072 25.884 49.313 26.269 49.852 26.996 50.069 27.844 49.623L43.626 40.497C44.407 40.046 44.725 39.044 44.222 38.266M80.719 8.781C81.57 9.185 81.734 9.484 82.719 10.516 83.703 11.547 84.31 16.413 84.567 18.572 84.756 20.161 85.538 21.751 85.529 23.329 85.521 24.676 85.076 25.887 84.931 27.202 84.715 29.164 84.697 30.566 84.789 32.657 84.919 35.583 85.13 37.795 85.525 40.598 85.646 41.46 86.146 43.397 86.198 44.193 86.318 46.031 86.508 46.703 86.422 48.41 84.931 48.539 83.599 48.602 81.972 48.41 81.544 45.181 81.024 40.168 79.622 37.201 79.293 36.504 78.859 35.861 78.454 35.205 77.968 34.418 77.89 34.646 77.714 33.741L77.943 33.412 78.418 33.368C78.627 33.471 78.863 33.532 79.047 33.677 80.834 35.083 81.398 38.192 81.972 40.32 82.515 42.331 82.754 44.325 83.202 46.36 83.867 44.228 84.347 42.127 84.395 39.884 84.407 39.286 83.689 36.716 83.599 36.247 82.983 33.031 82.649 30.613 82.385 27.216 82.462 19.507 82.177 23.016 82.687 17.591 82.914 15.174 83.237 13.943 82.228 11.868 81.219 9.792 80.719 8.781 80.719 8.781M75.658 31.829C74.089 29.438 69.081 29.683 69.688 31.429 70.356 33.349 72.276 29.966 75.658 31.829L87.743 51.128Z" stroke="none" fill-rule="evenodd" fill="#ffffff" fill-opacity="1" data-fill-palette-color="quaternary"></path></g></g></svg></g></svg></g></svg></g></svg></g><g></g></svg></g></svg></g></svg></g><defs></defs></svg><rect width="320" height="360" fill="none" stroke="none" visibility="hidden"></rect></g></svg></g></svg>